<svg xmlns="http://www.w3.org/2000/svg" xmlns:xlink="http://www.w3.org/1999/xlink" fill="none" version="1.1" width="16" height="16" viewBox="0 0 16 16"><defs><clipPath id="master_svg0_1732_80168"><rect x="0" y="0" width="16" height="16" rx="0"/></clipPath></defs><g clip-path="url(#master_svg0_1732_80168)"><g><path d="M3.796875,1.50438C3.796875238419,2.07634,4.260543,2.54001,4.832505,2.54001C5.404465,2.54001,5.8681350000000005,2.07634,5.8681350000000005,1.50438C5.8681350000000005,0.932418,5.404465,0.4687500596046,4.832505,0.4687500596046C4.260543,0.4687500596046,3.796875238419,0.932418,3.796875,1.50438ZM3.8162932,7.97168C3.8162935,8.54364,4.279961,9.00731,4.851925,9.00731C5.423885,9.00731,5.887555,8.54364,5.887555,7.97168C5.887555,7.39971,5.423885,6.93605,4.851925,6.93605C4.279961,6.93605,3.8162935,7.39971,3.8162932,7.97168ZM3.8162932,14.60145C3.8162935,15.17345,4.279961,15.63705,4.851925,15.63705C5.423885,15.63705,5.887555,15.17345,5.887555,14.60145C5.887555,14.02945,5.423885,13.56585,4.851925,13.56585C4.279961,13.56585,3.8162935,14.02945,3.8162932,14.60145ZM10.593845,1.50438C10.593845,2.07634,11.057515,2.54001,11.629475,2.54001C12.201445,2.54001,12.665105,2.07634,12.665105,1.50438C12.665105,0.932418,12.201445,0.46875,11.629475,0.46875C11.057515,0.46875,10.593845,0.932418,10.593845,1.50438ZM10.613265,7.97168C10.613265,8.54364,11.076934999999999,9.00731,11.648895,9.00731C12.220865,9.00731,12.684525,8.54364,12.684525,7.97168C12.684525,7.39971,12.220865,6.93605,11.648895,6.93605C11.076934999999999,6.93605,10.613265,7.39971,10.613265,7.97168ZM10.613265,14.60145C10.613265,15.17345,11.076934999999999,15.63705,11.648895,15.63705C12.220865,15.63705,12.684525,15.17345,12.684525,14.60145C12.684525,14.02945,12.220865,13.56585,11.648895,13.56585C11.076934999999999,13.56585,10.613265,14.02945,10.613265,14.60145Z" fill="#9EA4AA" fill-opacity="1"/></g></g></svg>

